<?xml version="1.0" encoding="UTF-8"?>
<svg xmlns="http://www.w3.org/2000/svg" xmlns:xlink="http://www.w3.org/1999/xlink" width="375pt" height="374.999991pt" viewBox="0 0 375 374.999991" version="1.2">
<g id="surface1">
<path style=" stroke:none;fill-rule:nonzero;fill:#75C3E2;fill-opacity:1;" d="M 8.316406 218.617188 C 11.410156 223.664062 30.164062 244.488281 54.621094 273.417969 C 83.851562 307.996094 116.8125 346.945312 120.667969 351.359375 C 127.753906 359.46875 132.96875 353.875 143.566406 332.660156 C 158.238281 303.277344 188.488281 238.886719 230.996094 180.113281 C 273.507812 121.34375 337.277344 56.492188 352.460938 44.332031 C 367.640625 32.175781 374.726562 24.066406 364.605469 20.015625 C 354.484375 15.960938 275.4375 71.925781 229.316406 121.945312 C 179.789062 175.65625 126.140625 263.335938 112.84375 265.402344 C 102.191406 267.058594 50.644531 228.359375 36.03125 219.269531 C 19.066406 208.707031 0.265625 205.496094 8.316406 218.617188 "/>
</g>
</svg>
