<?xml version="1.0" encoding="UTF-8"?>
<svg xmlns="http://www.w3.org/2000/svg" xmlns:xlink="http://www.w3.org/1999/xlink" width="375pt" height="374.999991pt" viewBox="0 0 375 374.999991" version="1.2">
<defs>
<clipPath id="clip1">
  <path d="M 3.046875 3.046875 L 372 3.046875 L 372 372 L 3.046875 372 Z M 3.046875 3.046875 "/>
</clipPath>
<clipPath id="clip2">
  <path d="M 175 3.046875 L 271 3.046875 L 271 62 L 175 62 Z M 175 3.046875 "/>
</clipPath>
<clipPath id="clip3">
  <path d="M 140 3.046875 L 236 3.046875 L 236 62 L 140 62 Z M 140 3.046875 "/>
</clipPath>
<clipPath id="clip4">
  <path d="M 105 3.046875 L 201 3.046875 L 201 62 L 105 62 Z M 105 3.046875 "/>
</clipPath>
</defs>
<g id="surface1">
<path style=" stroke:none;fill-rule:nonzero;fill:rgb(0%,76.078796%,79.60968%);fill-opacity:1;" d="M 7.84375 286.019531 L 89.078125 366.953125 L 367.25 88.777344 L 286.019531 7.84375 Z M 7.84375 286.019531 "/>
<g clip-path="url(#clip1)" clip-rule="nonzero">
<path style="fill:none;stroke-width:3;stroke-linecap:round;stroke-linejoin:round;stroke:rgb(21.569824%,27.839661%,30.979919%);stroke-opacity:1;stroke-miterlimit:10;" d="M 3.899873 97.900533 L 31.000016 124.900333 L 123.799368 32.099678 L 96.700529 5.099877 Z M 3.899873 97.900533 " transform="matrix(2.997563,0,0,2.997563,-3.846365,-7.443452)"/>
</g>
<path style="fill-rule:nonzero;fill:rgb(0%,76.078796%,79.60968%);fill-opacity:1;stroke-width:3;stroke-linecap:round;stroke-linejoin:round;stroke:rgb(21.569824%,27.839661%,30.979919%);stroke-opacity:1;stroke-miterlimit:10;" d="M 102.800537 36.599427 L 31.000016 108.50029 " transform="matrix(2.997563,0,0,2.997563,-3.846365,-7.443452)"/>
<path style="fill-rule:nonzero;fill:rgb(0%,76.078796%,79.60968%);fill-opacity:1;stroke-width:3;stroke-linecap:round;stroke-linejoin:round;stroke:rgb(21.569824%,27.839661%,30.979919%);stroke-opacity:1;stroke-miterlimit:10;" d="M 89.499366 28.69978 L 99.099613 38.40037 " transform="matrix(2.997563,0,0,2.997563,-3.846365,-7.443452)"/>
<path style="fill-rule:nonzero;fill:rgb(0%,76.078796%,79.60968%);fill-opacity:1;stroke-width:3;stroke-linecap:round;stroke-linejoin:round;stroke:rgb(21.569824%,27.839661%,30.979919%);stroke-opacity:1;stroke-miterlimit:10;" d="M 87.500346 41.299861 L 91.899754 45.700571 " transform="matrix(2.997563,0,0,2.997563,-3.846365,-7.443452)"/>
<path style="fill-rule:nonzero;fill:rgb(0%,76.078796%,79.60968%);fill-opacity:1;stroke-width:3;stroke-linecap:round;stroke-linejoin:round;stroke:rgb(21.569824%,27.839661%,30.979919%);stroke-opacity:1;stroke-miterlimit:10;" d="M 75.499711 42.699435 L 85.099958 52.400025 " transform="matrix(2.997563,0,0,2.997563,-3.846365,-7.443452)"/>
<path style="fill-rule:nonzero;fill:rgb(0%,76.078796%,79.60968%);fill-opacity:1;stroke-width:3;stroke-linecap:round;stroke-linejoin:round;stroke:rgb(21.569824%,27.839661%,30.979919%);stroke-opacity:1;stroke-miterlimit:10;" d="M 73.499388 55.299516 L 77.900098 59.700227 " transform="matrix(2.997563,0,0,2.997563,-3.846365,-7.443452)"/>
<path style="fill-rule:nonzero;fill:rgb(0%,76.078796%,79.60968%);fill-opacity:1;stroke-width:3;stroke-linecap:round;stroke-linejoin:round;stroke:rgb(21.569824%,27.839661%,30.979919%);stroke-opacity:1;stroke-miterlimit:10;" d="M 61.500056 56.700393 L 71.200645 66.39968 " transform="matrix(2.997563,0,0,2.997563,-3.846365,-7.443452)"/>
<path style="fill-rule:nonzero;fill:rgb(0%,76.078796%,79.60968%);fill-opacity:1;stroke-width:3;stroke-linecap:round;stroke-linejoin:round;stroke:rgb(21.569824%,27.839661%,30.979919%);stroke-opacity:1;stroke-miterlimit:10;" d="M 59.499733 69.300474 L 63.900443 73.699882 " transform="matrix(2.997563,0,0,2.997563,-3.846365,-7.443452)"/>
<path style="fill-rule:nonzero;fill:rgb(0%,76.078796%,79.60968%);fill-opacity:1;stroke-width:3;stroke-linecap:round;stroke-linejoin:round;stroke:rgb(21.569824%,27.839661%,30.979919%);stroke-opacity:1;stroke-miterlimit:10;" d="M 47.5004 70.700049 L 57.199687 80.400638 " transform="matrix(2.997563,0,0,2.997563,-3.846365,-7.443452)"/>
<path style="fill-rule:nonzero;fill:rgb(0%,76.078796%,79.60968%);fill-opacity:1;stroke-width:3;stroke-linecap:round;stroke-linejoin:round;stroke:rgb(21.569824%,27.839661%,30.979919%);stroke-opacity:1;stroke-miterlimit:10;" d="M 45.500077 83.300129 L 49.899485 87.699537 " transform="matrix(2.997563,0,0,2.997563,-3.846365,-7.443452)"/>
<path style="fill-rule:nonzero;fill:rgb(0%,76.078796%,79.60968%);fill-opacity:1;stroke-width:3;stroke-linecap:round;stroke-linejoin:round;stroke:rgb(21.569824%,27.839661%,30.979919%);stroke-opacity:1;stroke-miterlimit:10;" d="M 33.499442 84.699704 L 43.200032 94.400293 " transform="matrix(2.997563,0,0,2.997563,-3.846365,-7.443452)"/>
<path style="fill-rule:nonzero;fill:rgb(0%,76.078796%,79.60968%);fill-opacity:1;stroke-width:3;stroke-linecap:round;stroke-linejoin:round;stroke:rgb(21.569824%,27.839661%,30.979919%);stroke-opacity:1;stroke-miterlimit:10;" d="M 31.599461 97.299784 L 35.89983 101.600153 " transform="matrix(2.997563,0,0,2.997563,-3.846365,-7.443452)"/>
<path style="fill-rule:nonzero;fill:rgb(21.569824%,27.839661%,30.979919%);fill-opacity:1;stroke-width:3;stroke-linecap:round;stroke-linejoin:round;stroke:rgb(21.569824%,27.839661%,30.979919%);stroke-opacity:1;stroke-miterlimit:10;" d="M 75.700395 98.399636 C 78.499544 101.200089 85.500023 98.699359 91.300308 92.800035 C 97.199632 86.99975 99.700362 79.900232 96.89991 77.200121 L 29.600441 9.800311 C 26.799989 6.999858 19.79951 9.500588 14.000528 15.399912 C 7.999558 21.300539 5.600474 28.299715 8.300584 30.999826 Z M 75.700395 98.399636 " transform="matrix(2.997563,0,0,2.997563,-3.846365,-7.443452)"/>
<path style="fill-rule:nonzero;fill:rgb(0%,76.078796%,79.60968%);fill-opacity:1;stroke-width:3;stroke-linecap:round;stroke-linejoin:round;stroke:rgb(21.569824%,27.839661%,30.979919%);stroke-opacity:1;stroke-miterlimit:10;" d="M 120.39947 121.299752 L 108.299796 93.099758 L 91.600031 109.799523 Z M 120.39947 121.299752 " transform="matrix(2.997563,0,0,2.997563,-3.846365,-7.443452)"/>
<path style="fill-rule:nonzero;fill:rgb(21.569824%,27.839661%,30.979919%);fill-opacity:1;stroke-width:3;stroke-linecap:round;stroke-linejoin:round;stroke:rgb(21.569824%,27.839661%,30.979919%);stroke-opacity:1;stroke-miterlimit:10;" d="M 120.499812 121.19941 L 115.499656 110.100549 L 109.200268 116.399938 Z M 120.499812 121.19941 " transform="matrix(2.997563,0,0,2.997563,-3.846365,-7.443452)"/>
<path style="fill-rule:nonzero;fill:rgb(100%,56.858826%,30.198669%);fill-opacity:1;stroke-width:3;stroke-linecap:round;stroke-linejoin:round;stroke:rgb(21.569824%,27.839661%,30.979919%);stroke-opacity:1;stroke-miterlimit:10;" d="M 85.600365 108.299606 C 88.399514 111.100059 95.399993 108.600632 101.200278 102.700005 C 107.099603 96.799378 109.600332 89.800202 106.79988 86.99975 L 39.500411 19.800623 C 36.699959 17.000171 29.69948 19.499597 23.900498 25.400224 C 17.999871 31.20051 15.500444 38.199686 18.299593 41.000138 Z M 85.600365 108.299606 " transform="matrix(2.997563,0,0,2.997563,-3.846365,-7.443452)"/>
<path style="fill-rule:nonzero;fill:rgb(0%,76.078796%,79.60968%);fill-opacity:1;stroke-width:3;stroke-linecap:round;stroke-linejoin:round;stroke:rgb(21.569824%,27.839661%,30.979919%);stroke-opacity:1;stroke-miterlimit:10;" d="M 91.199966 102.800347 C 94.000419 105.599496 98.500168 105.599496 101.30062 102.800347 C 104.09977 99.999895 104.09977 95.500145 101.30062 92.699693 L 33.899507 25.299882 C 31.100358 22.49943 26.600608 22.49943 23.800156 25.299882 C 20.999704 28.100335 20.999704 32.600084 23.800156 35.400537 Z M 91.199966 102.800347 " transform="matrix(2.997563,0,0,2.997563,-3.846365,-7.443452)"/>
<path style=" stroke:none;fill-rule:nonzero;fill:rgb(21.569824%,27.839661%,30.979919%);fill-opacity:1;" d="M 217.671875 13.539062 C 217.671875 16.238281 220.070312 18.636719 222.769531 18.636719 C 225.46875 18.636719 227.863281 16.535156 227.863281 13.539062 C 227.863281 10.839844 225.46875 8.445312 222.769531 8.445312 C 219.773438 8.742188 217.671875 10.839844 217.671875 13.539062 Z M 217.671875 13.539062 "/>
<g clip-path="url(#clip2)" clip-rule="nonzero">
<path style="fill:none;stroke-width:1;stroke-linecap:butt;stroke-linejoin:miter;stroke:rgb(21.569824%,27.839661%,30.979919%);stroke-opacity:1;stroke-miterlimit:10;" d="M 73.899452 6.999858 C 73.899452 7.90033 74.699582 8.700459 75.600053 8.700459 C 76.500524 8.700459 77.29935 7.999368 77.29935 6.999858 C 77.29935 6.099387 76.500524 5.300561 75.600053 5.300561 C 74.600543 5.3996 73.899452 6.099387 73.899452 6.999858 Z M 73.899452 6.999858 " transform="matrix(2.997563,0,0,2.997563,-3.846365,-7.443452)"/>
</g>
<path style=" stroke:none;fill-rule:nonzero;fill:rgb(21.569824%,27.839661%,30.979919%);fill-opacity:1;" d="M 182.601562 13.539062 C 182.601562 16.238281 184.699219 18.636719 187.699219 18.636719 C 190.394531 18.636719 192.792969 16.535156 192.792969 13.539062 C 192.792969 10.839844 190.394531 8.445312 187.699219 8.445312 C 184.699219 8.742188 182.601562 10.839844 182.601562 13.539062 Z M 182.601562 13.539062 "/>
<g clip-path="url(#clip3)" clip-rule="nonzero">
<path style="fill:none;stroke-width:1;stroke-linecap:butt;stroke-linejoin:miter;stroke:rgb(21.569824%,27.839661%,30.979919%);stroke-opacity:1;stroke-miterlimit:10;" d="M 62.199843 6.999858 C 62.199843 7.90033 62.89963 8.700459 63.900443 8.700459 C 64.799611 8.700459 65.599741 7.999368 65.599741 6.999858 C 65.599741 6.099387 64.799611 5.300561 63.900443 5.300561 C 62.89963 5.3996 62.199843 6.099387 62.199843 6.999858 Z M 62.199843 6.999858 " transform="matrix(2.997563,0,0,2.997563,-3.846365,-7.443452)"/>
</g>
<path style=" stroke:none;fill-rule:nonzero;fill:rgb(21.569824%,27.839661%,30.979919%);fill-opacity:1;" d="M 147.53125 13.539062 C 147.53125 16.238281 149.929688 18.636719 152.625 18.636719 C 155.324219 18.636719 157.722656 16.535156 157.722656 13.539062 C 157.722656 10.839844 155.625 8.445312 152.625 8.445312 C 149.628906 8.742188 147.53125 10.839844 147.53125 13.539062 Z M 147.53125 13.539062 "/>
<g clip-path="url(#clip4)" clip-rule="nonzero">
<path style="fill:none;stroke-width:1;stroke-linecap:butt;stroke-linejoin:miter;stroke:rgb(21.569824%,27.839661%,30.979919%);stroke-opacity:1;stroke-miterlimit:10;" d="M 50.500234 6.999858 C 50.500234 7.90033 51.300363 8.700459 52.199531 8.700459 C 53.100002 8.700459 53.900131 7.999368 53.900131 6.999858 C 53.900131 6.099387 53.200344 5.300561 52.199531 5.300561 C 51.200021 5.3996 50.500234 6.099387 50.500234 6.999858 Z M 50.500234 6.999858 " transform="matrix(2.997563,0,0,2.997563,-3.846365,-7.443452)"/>
</g>
</g>
</svg>
