<?xml version="1.0" encoding="UTF-8"?>
<svg xmlns="http://www.w3.org/2000/svg" xmlns:xlink="http://www.w3.org/1999/xlink" width="375pt" height="374.999991pt" viewBox="0 0 375 374.999991" version="1.2">
<defs>
<clipPath id="clip1">
  <path d="M 2 14 L 371 14 L 371 363.515625 L 2 363.515625 Z M 2 14 "/>
</clipPath>
</defs>
<g id="surface1">
<path style=" stroke:none;fill-rule:nonzero;fill:rgb(44.309998%,77.249146%,59.609985%);fill-opacity:1;" d="M 98.40625 25.144531 C 94.617188 25.054688 90.917969 24.964844 87.132812 25.144531 C 87.761719 51.460938 92 78.769531 85.328125 104.542969 C 87.039062 104.8125 88.664062 105.175781 90.289062 105.71875 C 92.09375 106.261719 93.535156 106.984375 94.796875 107.886719 C 96.332031 103.546875 96.421875 98.394531 96.511719 94.050781 C 96.691406 87.542969 96.511719 80.941406 96.691406 74.429688 C 96.960938 65.929688 98.585938 57.609375 98.675781 49.109375 C 98.765625 41.0625 98.496094 33.105469 98.40625 25.144531 Z M 98.40625 25.144531 "/>
<path style=" stroke:none;fill-rule:nonzero;fill:rgb(98.81897%,74.899292%,58.428955%);fill-opacity:1;" d="M 230.457031 117.5625 C 209.621094 103.546875 182.5625 99.027344 158.566406 106.894531 C 136.019531 114.21875 116.085938 130.765625 114.820312 155.90625 C 114.730469 157.804688 113.828125 159.070312 112.566406 159.703125 C 109.679688 187.917969 117.078125 220.832031 142.691406 236.566406 C 171.738281 254.382812 210.070312 256.371094 240.558594 240.816406 C 291.070312 214.953125 269.058594 143.515625 230.457031 117.5625 Z M 233.882812 220.378906 C 219.992188 231.503906 201.410156 235.933594 183.824219 235.390625 C 166.957031 234.847656 146.84375 229.511719 135.929688 215.585938 C 121.585938 197.320312 125.195312 173.71875 129.613281 152.46875 C 129.613281 151.835938 129.703125 151.203125 130.066406 150.480469 C 130.066406 150.296875 130.15625 150.117188 130.15625 149.9375 C 130.425781 148.582031 131.058594 147.585938 131.960938 146.953125 C 160.371094 98.300781 238.664062 121.722656 249.667969 173.359375 C 253.367188 191.171875 248.132812 208.984375 233.882812 220.378906 Z M 233.882812 220.378906 "/>
<path style=" stroke:none;fill-rule:nonzero;fill:rgb(15.689087%,23.919678%,35.688782%);fill-opacity:1;" d="M 224.59375 149.03125 C 200.871094 126.425781 156.855469 120.636719 139.625 154.007812 C 135.296875 174.625 130.335938 201.300781 150.269531 215.136719 C 164.972656 225.355469 184.996094 227.253906 202.132812 223.726562 C 217.648438 220.46875 234.242188 211.789062 239.203125 195.511719 C 244.257812 179.144531 236.5 160.335938 224.59375 149.03125 Z M 212.867188 188.1875 C 212.867188 189.726562 212.324219 191.441406 210.882812 192.257812 C 198.34375 199.308594 180.667969 205.007812 167.316406 196.6875 C 163.078125 194.066406 160.734375 189.726562 160.011719 184.84375 C 159.558594 181.859375 160.28125 176.703125 158.117188 174.261719 C 155.410156 171.277344 157.484375 167.117188 160.28125 166.214844 C 165.695312 154.546875 182.652344 150.207031 194.285156 152.558594 C 201.410156 154.007812 208.175781 157.894531 211.242188 164.765625 C 214.402344 172.363281 212.957031 180.410156 212.867188 188.1875 Z M 315.601562 48.839844 C 308.207031 45.945312 299.90625 46.398438 292.152344 46.578125 C 287.101562 46.667969 276.90625 44.679688 273.027344 49.109375 C 269.78125 52.90625 270.683594 59.78125 270.863281 64.390625 C 270.953125 68.371094 271.226562 72.441406 270.863281 76.417969 C 270.503906 80.035156 269.058594 84.738281 271.226562 87.992188 C 271.675781 88.085938 272.128906 88.175781 272.578125 88.355469 C 278.171875 90.707031 283.851562 91.792969 289.988281 91.25 C 294.855469 90.796875 299.1875 90.617188 304.058594 91.160156 C 311.003906 91.882812 321.105469 94.144531 324.441406 86.183594 C 329.042969 75.152344 328.5 53.902344 315.601562 48.839844 Z M 315.601562 48.839844 "/>
<path style=" stroke:none;fill-rule:nonzero;fill:rgb(15.689087%,23.919678%,35.688782%);fill-opacity:1;" d="M 203.488281 170.101562 C 201.59375 164.765625 196.902344 162.054688 191.488281 161.332031 C 183.28125 160.246094 171.015625 162.777344 167.769531 171.550781 C 167.585938 172 167.40625 172.363281 167.226562 172.632812 C 167.859375 174.261719 168.21875 176.070312 168.398438 177.96875 C 168.671875 181.132812 168.308594 185.113281 170.472656 187.734375 C 173.992188 191.984375 182.289062 192.078125 187.160156 191.441406 C 193.113281 190.628906 198.707031 188.550781 204.027344 185.835938 C 204.386719 180.59375 205.199219 174.894531 203.488281 170.101562 Z M 203.488281 170.101562 "/>
<path style=" stroke:none;fill-rule:nonzero;fill:rgb(77.249146%,39.608765%,15.689087%);fill-opacity:1;" d="M 350.960938 63.847656 C 342.300781 45.945312 325.433594 33.738281 306.671875 28.128906 C 284.664062 21.527344 262.65625 23.246094 240.105469 25.328125 C 211.875 27.949219 183.460938 31.296875 155.050781 29.9375 C 144.496094 29.488281 134.035156 28.222656 123.480469 27.046875 C 123.480469 44.136719 122.941406 61.226562 122.128906 78.226562 C 121.675781 87.722656 121.316406 97.21875 120.234375 106.621094 C 119.964844 108.882812 119.78125 112.136719 118.972656 114.761719 L 121.40625 114.761719 C 122.128906 114.761719 122.757812 114.941406 123.300781 115.121094 C 142.332031 97.398438 172.367188 89.621094 197.441406 93.78125 C 214.039062 96.492188 229.375 103.726562 242.179688 113.945312 C 242.8125 113.585938 243.535156 113.402344 244.4375 113.402344 C 266.714844 113.402344 289.085938 113.855469 311.363281 113.945312 C 322.546875 114.035156 333.640625 114.035156 344.828125 113.765625 C 347.804688 113.675781 350.78125 113.675781 353.667969 113.585938 C 355.652344 113.496094 357.996094 113.222656 360.160156 113.222656 C 360.339844 96.3125 358.355469 79.042969 350.960938 63.847656 Z M 329.222656 95.316406 C 322.277344 102.460938 311.363281 100.742188 302.34375 99.839844 C 296.570312 99.296875 290.980469 100.382812 285.207031 100.203125 C 279.433594 100.019531 274.019531 98.484375 268.609375 96.222656 C 267.796875 95.859375 267.257812 95.5 266.894531 94.957031 C 265.902344 94.777344 265 94.234375 264.191406 93.328125 C 258.6875 86.816406 262.207031 76.691406 262.023438 69.09375 C 261.84375 62.039062 260.761719 53.8125 263.648438 47.121094 C 266.535156 40.429688 273.480469 37.714844 280.335938 37.445312 C 289.265625 36.992188 298.644531 36.8125 307.574219 37.714844 C 315.875 38.53125 324.804688 41.242188 329.765625 48.566406 C 334.273438 55.167969 335.898438 63.847656 335.808594 71.808594 C 335.714844 79.582031 334.90625 89.441406 329.222656 95.316406 Z M 329.222656 95.316406 "/>
<path style=" stroke:none;fill-rule:nonzero;fill:rgb(29.40979%,48.239136%,69.799805%);fill-opacity:1;" d="M 107.425781 25.597656 C 107.605469 34.371094 107.875 43.050781 107.515625 51.824219 C 107.15625 59.871094 105.621094 67.738281 105.53125 75.785156 C 105.441406 83.199219 105.621094 90.617188 105.171875 98.03125 C 104.808594 103.546875 104.449219 109.785156 101.472656 114.667969 C 101.382812 114.761719 101.382812 114.851562 101.292969 114.941406 L 109.410156 114.941406 C 109.5 114.128906 109.859375 113.3125 110.3125 112.589844 C 110.3125 112.5 110.3125 112.410156 110.402344 112.320312 C 110.671875 111.234375 110.851562 110.148438 111.035156 108.972656 C 111.484375 105.808594 111.753906 102.734375 112.027344 99.570312 C 112.746094 90.527344 113.199219 81.390625 113.558594 72.347656 C 114.101562 57.429688 114.550781 42.507812 114.640625 27.585938 C 114.640625 27.136719 114.730469 26.683594 114.820312 26.320312 C 112.296875 25.960938 109.859375 25.777344 107.425781 25.597656 Z M 107.425781 25.597656 "/>
<path style=" stroke:none;fill-rule:nonzero;fill:rgb(77.249146%,39.608765%,15.689087%);fill-opacity:1;" d="M 34.183594 78.410156 C 33.28125 66.925781 31.390625 55.347656 30.847656 43.863281 C 25.796875 47.664062 21.105469 51.824219 16.6875 56.253906 C 16.6875 56.433594 16.6875 56.523438 16.6875 56.707031 C 16.6875 77.503906 17.589844 98.210938 18.402344 119.011719 C 18.492188 119.011719 18.492188 119.011719 18.582031 119.011719 L 32.109375 119.011719 C 32.289062 119.011719 32.5625 119.011719 32.742188 119.101562 C 31.570312 116.929688 32.109375 113.945312 34.457031 112.769531 C 34.457031 112.679688 34.457031 112.5 34.546875 112.320312 C 34.636719 111.867188 34.726562 111.414062 34.816406 110.960938 C 35.265625 108.160156 35.359375 105.355469 35.359375 102.550781 C 35.359375 94.414062 34.816406 86.367188 34.183594 78.410156 Z M 34.183594 78.410156 "/>
<path style=" stroke:none;fill-rule:nonzero;fill:rgb(83.918762%,89.7995%,89.7995%);fill-opacity:1;" d="M 91.191406 117.652344 C 90.015625 114.578125 87.222656 113.945312 84.246094 113.496094 C 77.75 112.5 71.257812 113.042969 64.761719 113.042969 C 59.53125 113.042969 52.675781 113.855469 48.257812 116.839844 C 44.558594 119.28125 43.023438 122.898438 42.574219 127.058594 C 43.386719 127.148438 44.195312 127.511719 44.917969 128.234375 C 50.78125 133.660156 62.238281 132.121094 69.363281 131.128906 C 76.9375 130.132812 84.605469 128.503906 91.730469 125.792969 C 92 122.988281 92.183594 120.003906 91.191406 117.652344 Z M 91.191406 117.652344 "/>
<path style=" stroke:none;fill-rule:nonzero;fill:rgb(98.81897%,74.899292%,58.428955%);fill-opacity:1;" d="M 356.644531 215.859375 C 354.207031 190.902344 356.644531 166.484375 358.71875 141.617188 C 359.257812 135.558594 359.710938 129.410156 359.980469 123.078125 C 359.890625 122.988281 359.710938 122.898438 359.621094 122.808594 C 359.621094 122.808594 359.621094 122.808594 359.527344 122.71875 C 359.167969 122.808594 358.71875 122.808594 357.996094 122.628906 L 356.191406 122.71875 C 355.019531 122.71875 353.847656 122.808594 352.675781 122.808594 C 350.328125 122.898438 347.984375 122.898438 345.546875 122.988281 C 340.859375 123.078125 336.167969 123.171875 331.476562 123.171875 C 322.097656 123.261719 312.714844 123.171875 303.425781 123.078125 C 286.199219 122.898438 268.878906 122.628906 251.5625 122.628906 C 267.707031 139.265625 278.351562 161.421875 280.066406 185.203125 C 281.777344 208.984375 272.9375 232.226562 252.464844 245.609375 C 230.636719 259.898438 201.953125 264.597656 176.335938 259.898438 C 152.886719 255.554688 128.351562 244.523438 115.542969 223.453125 C 103.457031 203.652344 99.9375 180.050781 102.554688 157.261719 C 102.734375 155.542969 103.636719 154.367188 104.71875 153.644531 C 105.441406 142.25 109.5 132.304688 115.632812 123.894531 L 101.742188 123.894531 C 101.292969 123.894531 100.839844 123.804688 100.480469 123.710938 C 100.480469 125.339844 100.480469 126.878906 100.480469 128.503906 C 100.480469 130.675781 99.488281 132.210938 97.503906 133.117188 C 87.941406 137.277344 76.9375 139.628906 66.566406 140.441406 C 57.546875 141.164062 46 141.527344 38.875 134.925781 C 38.695312 134.746094 38.515625 134.5625 38.425781 134.382812 C 35.988281 134.925781 33.28125 133.660156 33.28125 130.496094 C 33.28125 129.589844 33.375 128.6875 33.375 127.78125 C 33.191406 127.78125 32.921875 127.871094 32.652344 127.871094 L 19.121094 127.871094 C 18.941406 127.871094 18.761719 127.871094 18.582031 127.871094 C 18.941406 137.457031 19.210938 147.042969 19.390625 156.71875 C 19.574219 170.554688 19.753906 184.480469 18.671875 198.316406 C 17.679688 211.335938 15.875 224.359375 14.339844 237.378906 C 11.363281 262.519531 7.9375 291.09375 17.589844 315.328125 C 32.832031 353.761719 80.277344 355.929688 115.363281 353.308594 C 143.957031 351.230469 172.546875 347.070312 201.320312 346.890625 C 224.863281 346.707031 248.132812 350.867188 271.675781 351.140625 C 291.972656 351.410156 313.980469 349.332031 331.386719 337.753906 C 350.148438 325.277344 358.808594 305.019531 360.613281 283.046875 C 362.59375 260.621094 358.808594 238.195312 356.644531 215.859375 Z M 356.644531 215.859375 "/>
<path style=" stroke:none;fill-rule:nonzero;fill:rgb(93.728638%,28.239441%,13.729858%);fill-opacity:1;" d="M 46.453125 34.097656 C 44.195312 35.273438 41.941406 36.449219 39.777344 37.804688 C 39.957031 52.996094 42.664062 68.28125 43.65625 83.382812 C 44.195312 91.792969 44.738281 100.382812 44.105469 108.792969 C 47.445312 106.894531 51.234375 105.628906 55.109375 104.902344 L 55.109375 30.480469 C 52.132812 31.566406 49.25 32.742188 46.453125 34.097656 Z M 46.453125 34.097656 "/>
<path style=" stroke:none;fill-rule:nonzero;fill:rgb(99.609375%,74.899292%,6.269836%);fill-opacity:1;" d="M 78.113281 25.6875 C 73.421875 26.140625 68.640625 26.863281 64.039062 27.949219 L 64.039062 104.089844 C 67.738281 104 71.617188 103.820312 75.40625 103.820312 C 75.585938 102.824219 76.035156 102.101562 76.667969 101.46875 C 82.800781 76.871094 78.742188 50.828125 78.113281 25.6875 Z M 78.113281 25.6875 "/>
<path style=" stroke:none;fill-rule:nonzero;fill:rgb(0%,0%,0%);fill-opacity:1;" d="M 249.578125 173.449219 C 238.574219 121.8125 160.28125 98.394531 131.871094 147.042969 C 130.96875 147.765625 130.335938 148.761719 130.066406 150.027344 C 130.066406 150.207031 129.976562 150.390625 129.976562 150.570312 C 129.703125 151.292969 129.523438 151.925781 129.523438 152.558594 C 125.105469 173.808594 121.496094 197.320312 135.839844 215.679688 C 146.753906 229.605469 166.957031 234.9375 183.734375 235.480469 C 201.320312 236.023438 219.902344 231.59375 233.792969 220.46875 C 248.132812 208.984375 253.367188 191.171875 249.578125 173.449219 Z M 239.296875 195.511719 C 234.335938 211.699219 217.738281 220.46875 202.222656 223.726562 C 184.996094 227.253906 165.0625 225.355469 150.359375 215.136719 C 130.515625 201.300781 135.386719 174.53125 139.714844 154.007812 C 156.945312 120.636719 200.960938 126.425781 224.683594 149.03125 C 236.5 160.335938 244.257812 179.144531 239.296875 195.511719 Z M 329.671875 48.65625 C 324.804688 41.421875 315.78125 38.710938 307.484375 37.804688 C 298.644531 36.902344 289.175781 37.082031 280.246094 37.535156 C 273.390625 37.804688 266.445312 40.519531 263.558594 47.210938 C 260.671875 53.902344 261.753906 62.039062 261.933594 69.183594 C 262.113281 76.871094 258.597656 87 264.097656 93.417969 C 264.910156 94.324219 265.8125 94.867188 266.804688 95.046875 C 267.257812 95.589844 267.796875 95.953125 268.519531 96.3125 C 273.839844 98.484375 279.253906 100.109375 285.117188 100.292969 C 290.886719 100.472656 296.480469 99.386719 302.253906 99.929688 C 311.273438 100.835938 322.097656 102.550781 329.132812 95.410156 C 334.816406 89.53125 335.714844 79.675781 335.714844 71.988281 C 335.808594 64.03125 334.183594 55.347656 329.671875 48.65625 Z M 324.441406 86.003906 C 321.105469 93.960938 311.003906 91.703125 304.058594 90.976562 C 299.1875 90.527344 294.855469 90.707031 289.988281 91.066406 C 283.941406 91.609375 278.261719 90.433594 272.578125 88.175781 C 272.128906 87.992188 271.675781 87.902344 271.226562 87.8125 C 269.058594 84.558594 270.503906 79.855469 270.863281 76.238281 C 271.226562 72.257812 270.953125 68.191406 270.863281 64.210938 C 270.773438 59.597656 269.78125 52.726562 273.027344 48.929688 C 276.90625 44.496094 287.011719 46.488281 292.152344 46.398438 C 299.90625 46.214844 308.296875 45.765625 315.601562 48.65625 C 328.5 53.902344 329.042969 75.152344 324.441406 86.003906 Z M 324.441406 86.003906 "/>
<g clip-path="url(#clip1)" clip-rule="nonzero">
<path style=" stroke:none;fill-rule:nonzero;fill:rgb(0%,0%,0%);fill-opacity:1;" d="M 369.8125 256.730469 C 368.457031 234.488281 364.21875 212.421875 364.308594 190.085938 C 364.398438 163.230469 369.449219 136.644531 369.089844 109.695312 C 368.820312 86.457031 364.128906 61.949219 348.433594 44.046875 C 335.445312 29.214844 317.046875 20.714844 298.015625 16.738281 C 274.742188 11.945312 250.839844 15.289062 227.480469 17.550781 C 198.886719 20.261719 170.292969 22.796875 141.609375 20.082031 C 130.066406 18.996094 118.429688 17.550781 106.882812 16.738281 C 105.53125 14.113281 101.5625 14.113281 99.488281 16.285156 C 94.4375 16.101562 89.386719 16.011719 84.246094 16.285156 C 83.253906 16.011719 81.988281 16.011719 80.996094 16.464844 C 77.839844 16.644531 74.683594 17.007812 71.617188 17.371094 C 46.8125 20.804688 26.246094 33.917969 8.839844 51.371094 C 7.394531 52.816406 7.304688 54.535156 7.9375 55.890625 C 7.757812 56.34375 7.667969 56.886719 7.667969 57.429688 C 7.667969 86.726562 9.472656 115.9375 10.28125 145.234375 C 10.734375 159.792969 10.824219 174.441406 10.371094 189 C 10.011719 202.023438 8.207031 214.953125 6.585938 227.796875 C 3.335938 253.566406 0 280.242188 5.59375 305.925781 C 9.921875 325.730469 20.746094 341.644531 38.605469 351.410156 C 55.109375 360.453125 74.773438 362.804688 93.265625 363.164062 C 118.699219 363.617188 144.226562 359.640625 169.570312 357.558594 C 183.824219 356.382812 198.164062 355.660156 212.417969 356.023438 C 224.503906 356.292969 236.5 357.832031 248.496094 358.914062 C 269.332031 360.722656 290.4375 361.265625 310.914062 356.292969 C 331.296875 351.320312 349.15625 339.023438 359.527344 320.574219 C 370.351562 301.3125 371.074219 278.074219 369.8125 256.730469 Z M 120.414062 106.710938 C 121.496094 97.308594 121.859375 87.8125 122.308594 78.316406 C 123.03125 61.226562 123.570312 44.136719 123.660156 27.136719 C 134.214844 28.222656 144.675781 29.488281 155.230469 30.03125 C 183.644531 31.386719 212.054688 28.039062 240.289062 25.417969 C 262.835938 23.335938 284.84375 21.621094 306.851562 28.222656 C 325.613281 33.828125 342.480469 46.035156 351.140625 63.941406 C 358.535156 79.132812 360.519531 96.402344 360.429688 113.496094 C 358.265625 113.402344 356.011719 113.765625 353.9375 113.855469 C 350.960938 113.945312 348.074219 114.035156 345.097656 114.035156 C 333.914062 114.21875 322.820312 114.21875 311.632812 114.21875 C 289.355469 114.128906 266.984375 113.675781 244.707031 113.675781 C 243.804688 113.675781 243.082031 113.855469 242.453125 114.21875 C 229.554688 103.820312 214.21875 96.585938 197.625 93.871094 C 172.546875 89.800781 142.421875 97.488281 123.480469 115.210938 C 122.941406 114.941406 122.308594 114.851562 121.585938 114.851562 L 119.0625 114.851562 C 119.964844 112.226562 120.144531 109.0625 120.414062 106.710938 Z M 240.558594 240.816406 C 210.070312 256.371094 171.828125 254.382812 142.691406 236.566406 C 117.078125 220.832031 109.679688 187.824219 112.566406 159.703125 C 113.828125 159.070312 114.730469 157.804688 114.820312 155.90625 C 116.085938 130.675781 136.019531 114.21875 158.566406 106.894531 C 182.652344 99.027344 209.621094 103.546875 230.457031 117.5625 C 269.058594 143.515625 291.070312 214.953125 240.558594 240.816406 Z M 101.472656 114.667969 C 104.449219 109.785156 104.898438 103.636719 105.171875 98.03125 C 105.621094 90.617188 105.441406 83.199219 105.53125 75.785156 C 105.621094 67.738281 107.15625 59.871094 107.515625 51.824219 C 107.875 43.050781 107.605469 34.371094 107.425781 25.597656 C 109.859375 25.777344 112.296875 25.960938 114.730469 26.230469 C 114.640625 26.59375 114.550781 27.046875 114.550781 27.496094 C 114.550781 42.417969 114.101562 57.339844 113.46875 72.257812 C 113.109375 81.300781 112.746094 90.433594 111.9375 99.476562 C 111.664062 102.644531 111.394531 105.808594 110.945312 108.882812 C 110.761719 109.96875 110.582031 111.144531 110.3125 112.226562 C 110.3125 112.320312 110.222656 112.410156 110.222656 112.5 C 109.679688 113.222656 109.410156 114.035156 109.320312 114.851562 L 101.203125 114.851562 C 101.382812 114.761719 101.382812 114.761719 101.472656 114.667969 Z M 87.132812 25.054688 C 90.917969 24.964844 94.617188 24.964844 98.40625 25.054688 C 98.496094 33.011719 98.765625 40.972656 98.675781 48.929688 C 98.496094 57.429688 96.871094 65.75 96.691406 74.25 C 96.511719 80.757812 96.691406 87.359375 96.511719 93.871094 C 96.421875 98.210938 96.332031 103.367188 94.796875 107.707031 C 93.535156 106.800781 92.09375 106.078125 90.289062 105.535156 C 88.664062 104.992188 87.042969 104.632812 85.328125 104.359375 C 92 78.769531 87.761719 51.371094 87.132812 25.054688 Z M 84.246094 113.496094 C 87.222656 113.945312 90.015625 114.578125 91.191406 117.652344 C 92.09375 120.003906 91.910156 122.988281 91.730469 125.792969 C 84.515625 128.503906 76.9375 130.132812 69.363281 131.128906 C 62.238281 132.03125 50.78125 133.660156 44.917969 128.234375 C 44.195312 127.511719 43.386719 127.148438 42.574219 127.058594 C 43.023438 122.988281 44.558594 119.28125 48.257812 116.839844 C 52.765625 113.855469 59.53125 113.042969 64.761719 113.042969 C 71.257812 113.042969 77.75 112.5 84.246094 113.496094 Z M 64.039062 27.949219 C 68.640625 26.863281 73.421875 26.140625 78.113281 25.6875 C 78.742188 50.828125 82.800781 76.871094 76.757812 101.46875 C 76.128906 102.011719 75.675781 102.824219 75.496094 103.820312 C 71.707031 103.820312 67.828125 104 64.128906 104.089844 L 64.128906 27.949219 Z M 46.453125 34.097656 C 49.25 32.742188 52.132812 31.476562 55.109375 30.480469 L 55.109375 104.902344 C 51.234375 105.628906 47.445312 106.894531 44.105469 108.792969 C 44.738281 100.382812 44.195312 91.792969 43.65625 83.382812 C 42.664062 68.28125 39.867188 52.996094 39.777344 37.804688 C 41.851562 36.539062 44.105469 35.273438 46.453125 34.097656 Z M 30.847656 43.863281 C 31.390625 55.347656 33.28125 66.925781 34.183594 78.410156 C 34.816406 86.367188 35.359375 94.414062 35.359375 102.460938 C 35.359375 105.265625 35.265625 108.070312 34.816406 110.871094 C 34.726562 111.324219 34.636719 111.777344 34.546875 112.226562 C 34.546875 112.410156 34.457031 112.589844 34.457031 112.679688 C 32.109375 113.855469 31.660156 116.929688 32.742188 119.011719 C 32.5625 119.011719 32.289062 118.921875 32.109375 118.921875 L 18.582031 118.921875 C 18.492188 118.921875 18.492188 118.921875 18.398438 118.921875 C 17.589844 98.121094 16.6875 77.414062 16.6875 56.613281 C 16.6875 56.433594 16.6875 56.34375 16.6875 56.164062 C 21.105469 51.824219 25.886719 47.664062 30.847656 43.863281 Z M 360.792969 283.136719 C 358.988281 305.203125 350.328125 325.367188 331.566406 337.847656 C 314.160156 349.421875 292.152344 351.410156 271.855469 351.230469 C 248.316406 350.957031 225.042969 346.796875 201.503906 346.980469 C 172.730469 347.160156 144.226562 351.320312 115.542969 353.398438 C 80.367188 356.023438 33.011719 353.851562 17.769531 315.417969 C 8.207031 291.183594 11.546875 262.699219 14.523438 237.472656 C 16.054688 224.449219 17.859375 211.519531 18.851562 198.40625 C 19.933594 184.570312 19.753906 170.644531 19.574219 156.808594 C 19.394531 147.222656 19.121094 137.546875 18.761719 127.960938 C 18.941406 127.960938 19.121094 127.960938 19.300781 127.960938 L 32.832031 127.960938 C 33.101562 127.960938 33.28125 127.960938 33.554688 127.871094 C 33.464844 128.777344 33.464844 129.679688 33.464844 130.585938 C 33.375 133.75 36.078125 135.015625 38.605469 134.472656 C 38.785156 134.65625 38.875 134.835938 39.054688 135.015625 C 46.179688 141.617188 57.726562 141.347656 66.746094 140.53125 C 77.121094 139.628906 88.035156 137.367188 97.683594 133.207031 C 99.667969 132.304688 100.660156 130.765625 100.660156 128.597656 C 100.660156 126.96875 100.660156 125.429688 100.660156 123.804688 C 101.023438 123.894531 101.472656 123.984375 101.921875 123.984375 L 115.8125 123.984375 C 109.589844 132.304688 105.621094 142.25 104.898438 153.734375 C 103.726562 154.367188 102.914062 155.542969 102.734375 157.351562 C 100.210938 180.140625 103.636719 203.742188 115.722656 223.546875 C 128.621094 244.613281 153.066406 255.738281 176.515625 259.988281 C 202.042969 264.691406 230.726562 259.988281 252.644531 245.699219 C 273.121094 232.316406 281.957031 209.078125 280.246094 185.292969 C 278.53125 161.511719 267.886719 139.355469 251.742188 122.71875 C 269.058594 122.808594 286.289062 123.078125 303.605469 123.171875 C 312.988281 123.261719 322.367188 123.261719 331.65625 123.261719 C 336.347656 123.261719 341.039062 123.171875 345.730469 123.078125 C 348.074219 123.078125 350.417969 122.988281 352.855469 122.898438 C 354.027344 122.898438 355.199219 122.808594 356.371094 122.808594 L 358.175781 122.71875 C 358.898438 122.898438 359.347656 122.898438 359.710938 122.808594 C 359.710938 122.808594 359.710938 122.808594 359.800781 122.898438 C 359.890625 122.988281 360.070312 123.078125 360.160156 123.171875 C 359.890625 129.410156 359.4375 135.648438 358.898438 141.707031 C 356.824219 166.574219 354.386719 190.992188 356.824219 215.949219 C 358.808594 238.195312 362.59375 260.621094 360.792969 283.136719 Z M 360.792969 283.136719 "/>
</g>
<path style=" stroke:none;fill-rule:nonzero;fill:rgb(0%,0%,0%);fill-opacity:1;" d="M 211.152344 164.855469 C 208.085938 157.984375 201.320312 154.097656 194.195312 152.648438 C 182.5625 150.296875 165.601562 154.640625 160.191406 166.304688 C 157.394531 167.117188 155.320312 171.367188 158.027344 174.351562 C 160.28125 176.792969 159.558594 181.859375 159.921875 184.933594 C 160.640625 189.816406 162.988281 194.15625 167.226562 196.777344 C 180.667969 205.097656 198.253906 199.402344 210.792969 192.347656 C 212.234375 191.535156 212.777344 189.816406 212.777344 188.277344 C 212.957031 180.410156 214.402344 172.363281 211.152344 164.855469 Z M 204.027344 185.835938 C 198.707031 188.640625 193.113281 190.628906 187.160156 191.441406 C 182.289062 192.167969 173.992188 191.984375 170.472656 187.734375 C 168.308594 185.203125 168.671875 181.132812 168.398438 177.96875 C 168.21875 176.070312 167.859375 174.261719 167.226562 172.632812 C 167.40625 172.363281 167.679688 172 167.769531 171.550781 C 171.015625 162.777344 183.191406 160.246094 191.488281 161.332031 C 196.902344 162.054688 201.59375 164.765625 203.488281 170.101562 C 205.199219 174.894531 204.386719 180.59375 204.027344 185.835938 Z M 204.027344 185.835938 "/>
<path style=" stroke:none;fill-rule:nonzero;fill:rgb(83.918762%,89.7995%,89.7995%);fill-opacity:1;" d="M 172.1875 140.894531 C 163.617188 138.273438 154.78125 142.703125 153.335938 151.925781 C 151.804688 161.78125 159.648438 168.566406 168.941406 168.835938 C 172.367188 168.925781 173.449219 165.851562 172.730469 163.320312 C 174.714844 162.777344 175.796875 160.515625 175.796875 158.617188 L 175.796875 145.054688 C 175.886719 142.792969 173.992188 141.4375 172.1875 140.894531 Z M 166.867188 152.199219 C 164.882812 153.28125 163.890625 155.816406 164.339844 157.804688 C 164.339844 157.984375 164.339844 158.257812 164.339844 158.4375 C 162.898438 157.351562 161.996094 155.632812 162.265625 153.644531 C 162.535156 150.570312 164.429688 149.304688 166.867188 149.214844 Z M 166.867188 152.199219 "/>
</g>
</svg>
