<?xml version="1.0" encoding="UTF-8"?>
<svg xmlns="http://www.w3.org/2000/svg" xmlns:xlink="http://www.w3.org/1999/xlink" width="810pt" height="809.999993pt" viewBox="0 0 810 809.999993" version="1.2">
<defs>
<clipPath id="clip1">
  <path d="M 122 336 L 684 336 L 684 792.710938 L 122 792.710938 Z M 122 336 "/>
</clipPath>
<clipPath id="clip2">
  <path d="M 192 17.210938 L 387 17.210938 L 387 270 L 192 270 Z M 192 17.210938 "/>
</clipPath>
<clipPath id="clip3">
  <path d="M 419 17.210938 L 614 17.210938 L 614 270 L 419 270 Z M 419 17.210938 "/>
</clipPath>
</defs>
<g id="surface1">
<g clip-path="url(#clip1)" clip-rule="nonzero">
<path style=" stroke:none;fill-rule:nonzero;fill:rgb(88.62915%,58.039856%,45.878601%);fill-opacity:1;" d="M 561.210938 479.082031 C 508.019531 418.476562 485.4375 336.199219 403.070312 336.199219 C 320.703125 336.199219 298.109375 418.476562 244.917969 479.082031 C 197.335938 533.296875 122.359375 558.535156 122.359375 633.789062 C 122.359375 721.566406 193.53125 792.726562 281.308594 792.726562 C 330.199219 792.726562 357.722656 735.933594 403.070312 735.933594 C 448.398438 735.933594 475.941406 792.726562 524.820312 792.726562 C 612.609375 792.726562 683.773438 721.566406 683.773438 633.789062 C 683.773438 558.535156 608.796875 533.296875 561.210938 479.082031 "/>
</g>
<g clip-path="url(#clip2)" clip-rule="nonzero">
<path style=" stroke:none;fill-rule:nonzero;fill:rgb(88.62915%,58.039856%,45.878601%);fill-opacity:1;" d="M 386.15625 143.453125 C 386.15625 213.167969 342.753906 269.695312 289.207031 269.695312 C 235.660156 269.695312 192.253906 213.167969 192.253906 143.453125 C 192.253906 73.722656 235.660156 17.199219 289.207031 17.199219 C 342.753906 17.199219 386.15625 73.722656 386.15625 143.453125 "/>
</g>
<g clip-path="url(#clip3)" clip-rule="nonzero">
<path style=" stroke:none;fill-rule:nonzero;fill:rgb(88.62915%,58.039856%,45.878601%);fill-opacity:1;" d="M 613.871094 143.453125 C 613.871094 213.167969 570.46875 269.695312 516.921875 269.695312 C 463.378906 269.695312 419.976562 213.167969 419.976562 143.453125 C 419.976562 73.722656 463.378906 17.199219 516.921875 17.199219 C 570.46875 17.199219 613.871094 73.722656 613.871094 143.453125 "/>
</g>
<path style=" stroke:none;fill-rule:nonzero;fill:rgb(88.62915%,58.039856%,45.878601%);fill-opacity:1;" d="M 203.582031 324.855469 C 216.730469 393.328125 184.753906 457.023438 132.167969 467.117188 C 79.582031 477.207031 26.300781 429.875 13.152344 361.402344 C 0.0117188 292.933594 31.980469 229.238281 84.566406 219.148438 C 137.144531 209.046875 190.433594 256.378906 203.582031 324.855469 "/>
<path style=" stroke:none;fill-rule:nonzero;fill:rgb(88.62915%,58.039856%,45.878601%);fill-opacity:1;" d="M 786.324219 378.148438 C 762.636719 443.726562 702.605469 482.144531 652.25 463.953125 C 601.886719 445.769531 580.269531 377.863281 603.953125 312.285156 C 627.648438 246.714844 687.671875 208.292969 738.039062 226.476562 C 788.394531 244.660156 810.011719 312.578125 786.324219 378.148438 "/>
</g>
</svg>
