<?xml version="1.0" encoding="UTF-8"?>
<svg xmlns="http://www.w3.org/2000/svg" xmlns:xlink="http://www.w3.org/1999/xlink" width="375pt" height="374.999991pt" viewBox="0 0 375 374.999991" version="1.2">
<g id="surface1">
<path style=" stroke:none;fill-rule:nonzero;fill:#03265B;fill-opacity:1;" d="M 72.117188 0 C 32.453125 0 0 32.453125 0 72.117188 L 0 302.882812 C 0 342.546875 32.453125 375 72.117188 375 L 302.882812 375 C 342.546875 375 375 342.546875 375 302.882812 L 375 72.117188 C 375 32.453125 342.546875 0 302.882812 0 Z M 72.117188 28.847656 L 302.882812 28.847656 C 326.972656 28.847656 346.152344 48.027344 346.152344 72.117188 L 346.152344 302.882812 C 346.152344 326.972656 326.972656 346.152344 302.882812 346.152344 L 256.855469 346.152344 L 256.855469 229.8125 L 297.136719 229.8125 L 303.167969 183.386719 L 256.855469 183.386719 L 256.855469 153.808594 C 256.855469 140.367188 260.597656 131.214844 280.011719 131.214844 L 304.800781 131.214844 L 304.800781 89.695312 C 300.503906 89.117188 285.792969 87.890625 268.6875 87.890625 C 232.976562 87.890625 208.570312 109.496094 208.570312 149.1875 L 208.570312 183.386719 L 173.078125 183.273438 L 173.078125 229.699219 L 208.570312 229.8125 L 208.570312 346.152344 L 72.117188 346.152344 C 48.027344 346.152344 28.847656 326.972656 28.847656 302.882812 L 28.847656 72.117188 C 28.847656 48.027344 48.027344 28.847656 72.117188 28.847656 Z M 72.117188 28.847656 "/>
</g>
</svg>
